<?xml version="1.0" encoding="UTF-8"?> <!--Generator: Apple Native CoreSVG 232.5--> <!DOCTYPE svg PUBLIC "-//W3C//DTD SVG 1.1//EN"        "http://www.w3.org/Graphics/SVG/1.1/DTD/svg11.dtd"> <svg version="1.1" xmlns="http://www.w3.org/2000/svg" xmlns:xlink="http://www.w3.org/1999/xlink" width="26.2305" height="25.6152">  <g>   <rect height="25.6152" opacity="0" width="26.2305" x="0" y="0"/>   <path d="M21.6602 25.5859C21.8945 25.5859 22.0898 25.4199 22.1289 25.1758C22.5586 22.0703 22.5488 22.1191 25.8105 21.4941C26.0547 21.4453 26.2305 21.2695 26.2305 21.0254C26.2305 20.7812 26.0547 20.6055 25.8008 20.5566C22.5781 20.0586 22.5488 20.0586 22.1289 16.8945C22.0996 16.6406 21.9043 16.4648 21.6602 16.4648C21.3965 16.4648 21.2109 16.6504 21.1914 16.9043C20.7715 20.0098 20.7422 19.9414 17.4902 20.5566C17.2461 20.6152 17.0898 20.8008 17.0898 21.0254C17.0898 21.2793 17.2559 21.4453 17.5293 21.4941C20.7422 22.041 20.7715 22.0508 21.1914 25.1562C21.2109 25.4102 21.3965 25.5859 21.6602 25.5859Z" fill="#000000" fill-opacity="0.85"/>   <path d="M8.11523 6.98242C8.30078 6.98242 8.45703 6.8457 8.49609 6.65039C8.92578 4.25781 8.86719 4.3457 11.2695 3.87695C11.4746 3.83789 11.6016 3.68164 11.6016 3.49609C11.6016 3.30078 11.4746 3.1543 11.2695 3.10547C8.86719 2.63672 8.92578 2.72461 8.49609 0.332031C8.45703 0.136719 8.30078 0 8.11523 0C7.91992 0 7.76367 0.136719 7.73438 0.332031C7.30469 2.72461 7.36328 2.63672 4.96094 3.10547C4.75586 3.1543 4.62891 3.30078 4.62891 3.49609C4.62891 3.68164 4.75586 3.83789 4.96094 3.87695C7.36328 4.3457 7.30469 4.25781 7.73438 6.65039C7.76367 6.8457 7.91992 6.98242 8.11523 6.98242Z" fill="#000000" fill-opacity="0.85"/>   <path d="M8.06641 25.0879C9.93164 25.0879 11.4746 23.5449 11.4746 21.6504C11.4746 19.7852 9.92188 18.2422 8.06641 18.2422C6.17188 18.2422 4.62891 19.7852 4.62891 21.6504C4.62891 23.5449 6.17188 25.0879 8.06641 25.0879ZM8.06641 23.4473C7.06055 23.4473 6.25977 22.6465 6.25977 21.6504C6.25977 20.6836 7.08008 19.873 8.06641 19.873C9.02344 19.873 9.83398 20.6836 9.83398 21.6504C9.83398 22.627 9.02344 23.4473 8.06641 23.4473Z" fill="#000000" fill-opacity="0.85"/>   <path d="M3.18359 13.7793C4.91211 13.7793 6.35742 12.3438 6.35742 10.5957C6.35742 8.86719 4.91211 7.42188 3.18359 7.42188C1.43555 7.42188 0 8.85742 0 10.5957C0 12.3535 1.43555 13.7793 3.18359 13.7793ZM3.18359 12.1387C2.32422 12.1387 1.63086 11.4453 1.63086 10.5957C1.63086 9.75586 2.33398 9.0625 3.18359 9.0625C4.02344 9.0625 4.72656 9.75586 4.72656 10.5957C4.72656 11.4453 4.02344 12.1387 3.18359 12.1387Z" fill="#000000" fill-opacity="0.85"/>   <path d="M19.834 13.1934C23.0371 13.1934 25.6348 10.6152 25.6348 7.42188C25.6348 4.21875 23.0371 1.63086 19.834 1.63086C16.6309 1.63086 14.043 4.21875 14.043 7.42188C14.043 10.6152 16.6309 13.1934 19.834 13.1934ZM19.834 11.5625C17.5391 11.5625 15.6738 9.7168 15.6738 7.42188C15.6738 5.11719 17.5293 3.26172 19.834 3.26172C22.1484 3.26172 24.0039 5.11719 24.0039 7.42188C24.0039 9.7168 22.1289 11.5625 19.834 11.5625Z" fill="#000000" fill-opacity="0.85"/>   <path d="M14.8242 17.0117C17.4316 17.0117 19.5508 14.9023 19.5508 12.2852C19.5508 9.66797 17.4316 7.54883 14.8242 7.54883C12.1973 7.54883 10.0879 9.66797 10.0879 12.2852C10.0879 14.9023 12.1973 17.0117 14.8242 17.0117Z" fill="#ffffff"/>   <path d="M14.8242 17.0117C17.4316 17.0117 19.5508 14.9023 19.5508 12.2852C19.5508 9.66797 17.4316 7.54883 14.8242 7.54883C12.1973 7.54883 10.0879 9.66797 10.0879 12.2852C10.0879 14.9023 12.1973 17.0117 14.8242 17.0117ZM14.8242 15.3809C13.0957 15.3809 11.7188 14.0039 11.7188 12.2852C11.7188 10.5664 13.0957 9.17969 14.8242 9.17969C16.5332 9.17969 17.9199 10.5664 17.9199 12.2852C17.9199 14.0039 16.5332 15.3809 14.8242 15.3809Z" fill="#000000" fill-opacity="0.85"/>  </g> </svg>